PathFileType	4	(X/Y/Z)	DARI_DATA/Captury_Subj4_bilateral_squat01.trc
DataRate	CameraRate	NumFrames	NumMarkers	Units	OrigDataRate	OrigDataStartFrame	OrigNumFrames
60	60	4	47	mm	60.00239944458008	1	226
Frame#	Time		LeftUpLeg_		RightUpLeg_		LeftLeg_		RightLeg_		LeftFoot_		RightFoot_		LeftToeBase_		RightToeBase_		Knee_Lateral_r		Knee_Lateral_l		Ankle_Lateral_r		Ankle_Lateral_l		LeftArm_		LeftForeArm_		LeftHand_		LeftHandEE		RightArm_		RightForeArm_		RightHand_		RightHandEE		Spine_		Spine1_		Spine2_		Spine3_		Spine4_		Spine5_		Spine_x		Spine_y		Spine_z		RASI		LASI		RIPS		LIPS		RTHI		LTHI		RTIB		LTIB		RTOE		LTOE		RHEE		LHEE		RHipAngles		LHipAngles		RKneeAngles		LKneeAngles		RAnkleAngles		LAnkleAngles
			X1	Y1	Z1	X2	Y2	Z2	X3	Y3	Z3	X4	Y4	Z4	X5	Y5	Z5	X6	Y6	Z6	X7	Y7	Z7	X8	Y8	Z8	X9	Y9	Z9	X10	Y10	Z10	X11	Y11	Z11	X12	Y12	Z12	X13	Y13	Z13	X14	Y14	Z14	X15	Y15	Z15	X16	Y16	Z16	X17	Y17	Z17	X18	Y18	Z18	X19	Y19	Z19	X20	Y20	Z20	X21	Y21	Z21	X22	Y22	Z22	X23	Y23	Z23	X24	Y24	Z24	X25	Y25	Z25	X26	Y26	Z26	X27	Y27	Z27	X28	Y28	Z28	X29	Y29	Z29	X30	Y30	Z30	X31	Y31	Z31	X32	Y32	Z32	X33	Y33	Z33	X34	Y34	Z34	X35	Y35	Z35	X36	Y36	Z36	X37	Y37	Z37	X38	Y38	Z38	X39	Y39	Z39	X40	Y40	Z40	X41	Y41	Z41	X42	Y42	Z42	X43	Y43	Z43	X44	Y44	Z44	X45	Y45	Z45	X46	Y46	Z46	X47	Y47	Z47

1	0.00000	-83.78147	-65.07033	27.82836	83.78147	-65.07033	27.82836	-104.51390	-471.31403	21.47788	104.51390	-471.31403	21.47788	-124.77939	-844.87146	53.60382	124.77939	-844.87146	53.60382	-124.77939	-891.03351	-69.00266	124.77939	-891.03351	-69.00266	151.20859	-471.31403	21.47788	-151.20859	-471.31403	21.47788	171.47406	-844.87146	72.28169	-171.47406	-844.87146	72.28169	-128.60028	455.08353	14.57464	-416.16983	441.95837	35.10104	-649.90674	425.80585	51.78493	-735.20911	419.91098	57.87333	128.60028	455.08353	14.57464	416.16983	441.95837	35.10104	649.90674	425.80585	51.78493	735.20911	419.91098	57.87333	0.00000	26.91726	46.34620	0.00000	132.19635	27.54636	0.00000	212.00165	36.10029	0.00000	307.50482	64.48804	0.00000	448.87958	50.01217	-28923081178180147754616411384381964288.00000	0.00000	-28923121742999355057957259278884536320.00000	46.99959	26.91726	46.34620	0.00000	73.91685	46.34620	0.00000	26.91726	93.34579	140.99876	-1.28249	-66.45281	-140.99876	-1.28249	-66.45281	37.59967	-1.28249	74.54595	-37.59967	-1.28249	74.54595	158.98080	-253.06866	27.82836	-158.98080	-253.06866	27.82836	151.20859	-639.41486	21.47788	-151.20859	-695.44849	21.47788	124.77939	-891.03351	-142.86197	-124.77939	-891.03351	-142.86197	124.77939	-910.24402	100.29850	-124.77939	-910.24402	100.29850	-0.00000	-0.00000	-0.00000	-0.00000	0.00000	0.00000	0.00000	-0.00000	-0.00000	0.00000	0.00000	0.00000	-0.00000	-0.00000	-0.00000	-0.00000	0.00000	0.00000
2	0.01667	-112.29656	851.33630	42.97923	55.22687	851.85718	46.57912	-147.04817	446.26016	28.49521	95.85974	447.30743	32.70288	-187.24890	74.18439	59.01492	124.79145	74.00919	60.97513	-191.50832	31.99586	-64.94180	138.73940	32.10643	-62.36544	141.53076	449.17429	42.24568	-193.64523	447.77451	31.10526	166.78535	75.01414	88.62938	-232.77623	76.26637	80.27951	-161.79185	1366.11987	88.28418	-221.89207	1300.73096	-186.31024	-199.71194	1323.48145	-419.03900	-211.14709	1319.34644	-503.89444	106.86627	1356.45154	98.97519	154.19901	1289.73157	-177.78806	143.40390	1307.89917	-411.72308	164.23395	1312.25916	-494.76166	-29.55417	938.71991	79.60944	-29.58946	1042.20032	78.04362	-29.89926	1116.17993	98.56794	-30.69648	1202.88086	140.41484	-29.35739	1341.38513	146.01784	-28923081178180147754616411384381964288.00000	0.00000	-28923121742999355057957259278884536320.00000	17.43433	938.86603	80.61917	-29.88038	984.94470	88.10198	-30.52086	930.22235	125.82436	113.92710	931.81738	-33.37270	-168.00392	930.94086	-39.43106	7.65235	906.00336	103.05066	-67.52927	905.76965	101.43509	137.60112	667.15320	56.44051	-193.68448	665.93323	42.87694	148.55075	281.10046	38.80075	-206.66501	225.21387	29.50360	146.54753	29.46285	-135.76328	-194.23578	25.52924	-138.46692	121.58861	7.08363	105.29979	-184.83167	7.34636	103.52109	8.22059	2.51740	10.41355	8.98088	2.14646	4.35669	-0.61618	-0.18982	-0.21985	-0.81868	1.45733	0.00631	-0.61883	-5.44977	-1.05104	-1.30074	-0.90921	-3.96785
3	0.03333	-111.41803	852.73236	41.19310	56.11032	853.78369	44.43210	-148.10056	447.77084	28.35757	95.44070	449.01385	33.53786	-185.75021	75.40509	58.59372	124.19346	75.62671	60.80182	-191.73146	32.51369	-65.05028	138.76532	33.32837	-62.33144	141.04529	450.78769	43.41048	-194.66556	449.50266	31.37340	166.00102	76.66103	88.73593	-231.13202	77.30204	80.18420	-161.97565	1365.04126	87.98383	-224.46677	1300.92126	-186.37601	-201.69232	1321.92773	-419.21124	-211.21727	1319.38025	-504.36456	106.65353	1355.67981	97.22183	155.92760	1290.27075	-179.51553	145.73189	1307.26599	-413.56555	164.55548	1312.87524	-497.00723	-28.88428	940.13074	78.25629	-29.22818	1043.31360	77.31705	-29.66616	1116.85596	98.25733	-30.51552	1202.99487	140.58138	-29.38545	1341.15967	146.94731	-28923081178180147754616411384381964288.00000	0.00000	-28923121742999355057957259278884536320.00000	18.10561	940.42560	79.16479	-29.34445	986.29346	87.07409	-29.72128	931.30585	124.41235	114.37030	934.49744	-35.08344	-167.56903	932.72815	-40.53445	8.48154	907.37408	101.38605	-66.70229	906.90228	99.93244	137.76662	668.86835	56.13298	-193.62891	667.69672	42.42249	148.09354	282.78790	39.44657	-206.32063	226.35292	29.44882	146.91766	30.52441	-135.68590	-195.37083	25.72793	-138.50711	120.86064	8.84591	105.33476	-183.20201	8.81699	103.46571	9.08002	2.15910	10.97301	9.54365	2.59041	4.72707	-0.02252	-0.11446	-0.25451	-0.57810	0.82498	-0.08156	-0.25576	-5.57247	-0.91371	-0.89349	-0.67860	-3.23391
4	0.05000	-111.26124	853.13605	40.70238	56.25600	854.29608	44.43926	-148.26617	448.18915	28.34041	95.13126	449.47690	33.74736	-184.40446	75.66428	58.46025	123.67485	76.05481	60.75076	-191.12611	31.44147	-64.67567	138.02055	32.83910	-62.09016	140.74307	451.20554	43.59458	-194.83873	449.96680	31.20915	165.50841	77.19354	88.64184	-229.87483	77.56403	79.86334	-162.08873	1363.53503	87.33947	-227.48642	1300.95215	-186.69775	-203.48419	1320.75964	-419.51477	-210.94850	1319.37659	-504.90027	106.72746	1354.47729	95.18771	158.45578	1290.59814	-181.45917	147.90189	1306.70618	-415.55603	164.50266	1313.43542	-499.38586	-28.89053	940.67712	77.79127	-29.28187	1043.41357	76.77061	-29.80416	1116.47778	97.74369	-30.78909	1202.04211	140.25095	-29.69200	1339.73279	147.10278	-28923081178180147754616411384381964288.00000	0.00000	-28923121742999355057957259278884536320.00000	18.09624	941.00250	78.83942	-29.40445	986.86163	86.49110	-29.86028	931.96820	123.96675	114.70552	934.84399	-35.10534	-167.21510	932.89160	-41.39426	8.42539	908.00134	101.11519	-66.75345	907.48071	99.43814	137.71326	669.29669	56.19847	-193.64108	668.17566	41.94491	147.68390	283.21362	39.49515	-205.51590	226.51740	29.21205	145.99922	29.59408	-135.44553	-195.00809	23.90652	-138.04703	120.55833	9.61146	105.80109	-182.45421	9.56522	104.07906	8.98830	2.05101	10.77623	9.47690	2.67715	4.71826	0.04944	-0.10331	-0.28607	-0.51723	0.51687	-0.13878	0.19974	-5.66714	-0.69033	-0.27794	-0.36024	-2.33171
